<?xml version="1.0" standalone="no"?>
<!DOCTYPE svg PUBLIC "-//W3C//DTD SVG 20010904//EN"
 "http://www.w3.org/TR/2001/REC-SVG-20010904/DTD/svg10.dtd">
<svg version="1.0" xmlns="http://www.w3.org/2000/svg"
 width="721.000000pt" height="222.000000pt" viewBox="0 0 721.000000 222.000000"
 preserveAspectRatio="xMidYMid meet">
<metadata>
Created by potrace 1.16, written by Peter Selinger 2001-2019
</metadata>
<g transform="translate(0.000000,222.000000) scale(0.100000,-0.100000)"
fill="#000000" stroke="none">
<path d="M1300 1582 c0 -4 -22 -135 -50 -290 -27 -155 -50 -285 -50 -287 0
-12 70 -4 70 8 2 52 52 275 68 296 49 67 139 93 178 50 18 -20 18 -24 -9 -182
-15 -89 -27 -165 -27 -169 0 -5 15 -8 33 -8 l34 0 27 165 c31 178 29 226 -7
249 -54 35 -146 28 -201 -15 -26 -20 -26 -20 -26 -1 0 11 7 56 15 99 8 43 15
81 15 86 0 4 -16 7 -35 7 -19 0 -35 -4 -35 -8z"/>
<path d="M2215 1568 c-9 -40 -95 -543 -95 -556 0 -7 14 -12 33 -12 l32 0 49
283 c27 155 51 288 53 295 4 8 -6 12 -31 12 -29 0 -37 -4 -41 -22z"/>
<path d="M3081 1538 c-17 -88 -91 -514 -91 -527 0 -6 15 -11 33 -11 l33 0 22
132 c14 78 32 147 44 169 40 72 150 105 183 55 15 -23 14 -36 -10 -178 -14
-84 -28 -159 -30 -166 -4 -10 5 -12 32 -10 l37 3 29 165 c35 200 31 228 -33
254 -58 23 -90 20 -154 -14 -55 -28 -56 -28 -51 -7 2 12 9 49 15 82 6 33 13
70 16 83 4 19 0 22 -30 22 -34 0 -35 -1 -45 -52z"/>
<path d="M4009 1588 c-1 -2 -25 -133 -53 -293 l-52 -290 29 -3 c16 -2 31 -1
34 2 6 6 103 540 103 569 0 12 -8 17 -30 17 -16 0 -30 -1 -31 -2z"/>
<path d="M705 1548 c-5 -14 -95 -528 -95 -542 0 -4 71 -6 158 -4 139 3 163 6
210 27 113 51 179 178 170 327 -6 93 -35 141 -105 175 -42 21 -65 24 -190 27
-113 3 -144 1 -148 -10z m302 -78 c47 -28 63 -67 63 -152 0 -175 -97 -258
-300 -258 -66 0 -70 1 -70 23 0 19 52 327 65 385 5 21 10 22 108 22 84 0 108
-4 134 -20z"/>
<path d="M2404 1490 c-15 -55 -19 -60 -45 -60 -18 0 -29 -5 -29 -14 0 -8 -3
-21 -6 -30 -5 -12 0 -16 20 -16 15 0 26 -6 26 -13 0 -7 -11 -76 -25 -153 -30
-168 -30 -169 -5 -194 27 -27 95 -28 110 -1 16 32 12 41 -19 41 -17 0 -33 4
-36 10 -3 5 6 73 20 152 14 78 25 146 25 150 0 4 17 8 39 8 35 0 39 3 43 30 4
29 3 30 -32 30 l-37 0 8 43 c13 69 12 77 -15 77 -22 0 -27 -8 -42 -60z"/>
<path d="M1834 1431 c-108 -28 -168 -122 -168 -268 0 -77 12 -106 65 -145 29
-22 119 -34 173 -24 44 8 104 59 122 103 19 43 19 43 -21 43 -25 0 -35 -4 -35
-16 0 -8 -13 -29 -29 -45 -26 -26 -37 -29 -89 -29 -42 0 -66 5 -81 17 -22 18
-46 96 -36 114 4 5 75 9 159 9 175 0 166 -5 166 93 0 61 -21 108 -60 131 -35
20 -120 29 -166 17z m131 -76 c18 -18 25 -35 25 -65 l0 -40 -120 0 c-77 0
-120 4 -120 10 0 32 55 100 90 113 8 3 34 6 58 6 33 1 49 -5 67 -24z"/>
<path d="M2685 1428 c-48 -17 -103 -77 -126 -138 -28 -72 -31 -191 -6 -237 41
-77 169 -84 232 -14 l19 22 16 -33 c16 -35 42 -45 86 -34 35 9 34 56 -1 56
-33 0 -33 14 5 215 16 88 30 161 30 163 0 1 -11 2 -25 2 -17 0 -29 -8 -37 -25
-13 -29 -23 -32 -32 -10 -7 20 -67 45 -103 44 -15 0 -41 -5 -58 -11z m125 -68
c26 -26 34 -61 27 -121 -8 -63 -38 -132 -73 -164 -37 -34 -115 -36 -138 -3
-21 30 -21 140 0 201 31 92 132 139 184 87z"/>
<path d="M3602 1429 c-77 -23 -138 -124 -149 -246 -10 -114 28 -181 110 -190
58 -7 110 11 142 48 l25 31 0 -26 c0 -34 25 -56 65 -56 24 0 38 6 45 19 16 30
12 41 -14 41 -14 0 -27 4 -30 9 -3 5 9 90 27 190 l34 181 -27 0 c-19 0 -30 -7
-39 -26 l-12 -27 -27 26 c-32 31 -98 42 -150 26z m128 -74 c46 -49 24 -199
-40 -266 -32 -34 -43 -39 -82 -39 -67 0 -83 23 -82 114 1 89 33 170 78 197 45
27 97 25 126 -6z"/>
<path d="M4246 1428 c-133 -37 -204 -284 -112 -387 68 -76 228 -66 299 18 54
64 78 231 43 298 -33 64 -138 97 -230 71z m134 -63 c39 -20 53 -71 41 -146
-20 -124 -60 -169 -147 -169 -42 0 -59 5 -81 24 -26 23 -28 29 -27 98 2 131
56 208 147 208 21 0 51 -7 67 -15z"/>
<path d="M3410 710 c0 -22 5 -40 10 -40 6 0 10 11 10 25 0 22 4 25 35 25 l35
0 0 -155 c0 -131 -2 -155 -15 -155 -8 0 -15 -7 -15 -15 0 -11 12 -15 50 -15
38 0 50 4 50 15 0 8 -7 15 -15 15 -13 0 -15 24 -15 155 l0 155 35 0 c31 0 35
-3 35 -25 0 -16 6 -25 15 -25 11 0 15 11 15 40 l0 40 -115 0 -115 0 0 -40z"/>
<path d="M3690 735 c0 -8 7 -15 15 -15 13 0 15 -24 15 -155 0 -131 -2 -155
-15 -155 -8 0 -15 -7 -15 -15 0 -12 19 -15 115 -15 l115 0 0 45 c0 33 -4 45
-15 45 -10 0 -15 -10 -15 -30 l0 -31 -67 3 -68 3 0 70 0 70 38 3 c28 2 37 0
37 -12 0 -9 7 -16 15 -16 11 0 15 12 15 45 0 33 -4 45 -15 45 -8 0 -15 -7 -15
-15 0 -11 -11 -15 -40 -15 l-40 0 0 65 0 65 70 0 c68 0 70 -1 70 -25 0 -16 6
-25 15 -25 11 0 15 11 15 40 l0 40 -115 0 c-96 0 -115 -3 -115 -15z"/>
<path d="M3960 731 c-5 -11 -10 -85 -10 -170 0 -182 0 -181 122 -181 l78 0 0
45 c0 49 -17 62 -22 18 -3 -27 -5 -28 -70 -31 l-68 -3 0 156 0 155 70 0 c68 0
70 -1 70 -25 0 -14 5 -25 10 -25 6 0 10 18 10 40 l0 40 -90 0 c-78 0 -91 -2
-100 -19z"/>
<path d="M4220 735 c0 -8 7 -15 15 -15 13 0 15 -24 15 -155 0 -131 -2 -155
-15 -155 -8 0 -15 -7 -15 -15 0 -11 12 -15 45 -15 33 0 45 4 45 15 0 8 -7 15
-15 15 -12 0 -15 15 -15 75 l0 75 75 0 75 0 0 -75 c0 -60 -3 -75 -15 -75 -8 0
-15 -7 -15 -15 0 -11 12 -15 45 -15 33 0 45 4 45 15 0 8 -7 15 -15 15 -13 0
-15 24 -15 155 0 131 2 155 15 155 8 0 15 7 15 15 0 11 -12 15 -45 15 -33 0
-45 -4 -45 -15 0 -8 7 -15 15 -15 12 0 15 -14 15 -65 l0 -65 -75 0 -75 0 0 65
c0 51 3 65 15 65 8 0 15 7 15 15 0 11 -12 15 -45 15 -33 0 -45 -4 -45 -15z"/>
</g>
</svg>
